<svg width="73" height="72" viewBox="0 0 73 72" fill="none" xmlns="http://www.w3.org/2000/svg">
<circle opacity="0.2" cx="36.5977" cy="36" r="36" fill="#F09000"/>
<path d="M48.3615 34.3193H24.8338C22.9775 34.3193 21.4727 35.8242 21.4727 37.6804V49.4443C21.4727 51.3006 22.9775 52.8054 24.8338 52.8054H48.3615C50.2178 52.8054 51.7227 51.3006 51.7227 49.4443V37.6804C51.7227 35.8242 50.2178 34.3193 48.3615 34.3193Z" stroke="#F09000" stroke-width="2" stroke-linecap="round" stroke-linejoin="round"/>
<path d="M28.1953 34.3193V27.5971C28.1953 25.3686 29.0806 23.2313 30.6564 21.6555C32.2323 20.0796 34.3695 19.1943 36.5981 19.1943C38.8266 19.1943 40.9639 20.0796 42.5398 21.6555C44.1156 23.2313 45.0009 25.3686 45.0009 27.5971V34.3193" stroke="#F09000" stroke-width="2" stroke-linecap="round" stroke-linejoin="round"/>
<path d="M30.4145 47.6878C29.4713 47.6513 28.561 47.3321 27.802 46.7711C27.3944 46.47 27.3081 45.8954 27.6095 45.4878C27.9106 45.0802 28.4852 44.994 28.8928 45.2954C29.3421 45.6057 29.8691 45.7834 30.4145 45.8085C31.1112 45.8085 31.5602 45.4326 31.5602 45.176C31.5602 44.9194 31.1112 44.5526 30.4145 44.5526V44.5529C29.7003 44.6174 28.9894 44.4007 28.433 43.9486C27.8762 43.4965 27.5183 42.8449 27.4352 42.1329C27.4352 40.7487 28.7461 39.667 30.4145 39.667C30.9083 39.6646 31.3936 39.7953 31.8193 40.0455C32.2453 40.2953 32.5958 40.6556 32.8346 41.0878C32.966 41.306 33.0004 41.5694 32.9301 41.8143C32.8595 42.0589 32.69 42.2636 32.4626 42.3784C32.2352 42.4935 31.9703 42.5085 31.7312 42.4202C31.4921 42.3318 31.3009 42.1479 31.203 41.9128C31.029 41.6486 30.731 41.4926 30.4145 41.5003C29.7178 41.5003 29.2688 41.8763 29.2688 42.1329C29.2688 42.3895 29.7178 42.7655 30.4145 42.7655C32.0829 42.7655 33.3938 43.8471 33.3938 45.2221C33.3938 46.5971 32.0829 47.6879 30.4145 47.6879L30.4145 47.6878Z" fill="#F09000"/>
<path d="M36.8326 47.6878C35.8894 47.6513 34.979 47.3321 34.22 46.7711C33.8124 46.47 33.7262 45.8954 34.0273 45.4878C34.3287 45.0802 34.9032 44.994 35.3108 45.2954C35.7599 45.6057 36.2872 45.7834 36.8325 45.8085C37.5293 45.8085 37.9783 45.4326 37.9783 45.176C37.9783 44.9194 37.5293 44.5526 36.8325 44.5526V44.5529C36.1183 44.6174 35.4072 44.4007 34.8507 43.9486C34.2943 43.4965 33.9364 42.8449 33.8532 42.1329C33.8532 40.7487 35.1641 39.667 36.8325 39.667C37.3261 39.6646 37.8116 39.7953 38.2373 40.0455C38.663 40.2953 39.0139 40.6556 39.2523 41.0878C39.384 41.306 39.4184 41.5694 39.3478 41.8143C39.2772 42.0589 39.1081 42.2636 38.8807 42.3784C38.6532 42.4935 38.3884 42.5085 38.1493 42.4202C37.9102 42.3318 37.7186 42.1479 37.6207 41.9128C37.4467 41.6486 37.1487 41.4926 36.8326 41.5003C36.1359 41.5003 35.6868 41.8763 35.6868 42.1329C35.6868 42.3895 36.1359 42.7655 36.8326 42.7655C38.501 42.7655 39.8119 43.8471 39.8119 45.2221C39.8116 46.5971 38.5007 47.6879 36.8326 47.6879L36.8326 47.6878Z" fill="#F09000"/>
<path d="M44.8536 47.6878H41.7644C41.258 47.6878 40.8477 47.2775 40.8477 46.771V40.5835C40.8477 40.0773 41.258 39.667 41.7644 39.667C42.2706 39.667 42.6812 40.0774 42.6812 40.5835V45.8543L44.8536 45.8546C45.3597 45.8546 45.7704 46.2649 45.7704 46.771C45.7704 47.2775 45.3597 47.6878 44.8536 47.6878Z" fill="#F09000"/>
</svg>
