<svg width="73" height="72" viewBox="0 0 73 72" fill="none" xmlns="http://www.w3.org/2000/svg">
<circle opacity="0.2" cx="36.1992" cy="36" r="36" fill="#F09000"/>
<path d="M44.1437 28.0555H52.0881C52.6149 28.0555 53.12 28.2648 53.4925 28.6372C53.865 29.0097 54.0742 29.5149 54.0742 30.0416V51.8889L47.4545 46.3893C47.0973 46.0928 46.6476 45.9305 46.1834 45.9305H30.2409C29.7141 45.9305 29.209 45.7213 28.8365 45.3488C28.464 44.9763 28.2548 44.4712 28.2548 43.9444V37.9861M44.1437 28.0555V22.0972C44.1437 21.5704 43.9344 21.0653 43.5619 20.6928C43.1895 20.3203 42.6843 20.1111 42.1576 20.1111H20.3103C19.7836 20.1111 19.2784 20.3203 18.9059 20.6928C18.5335 21.0653 18.3242 21.5704 18.3242 22.0972V43.9444L24.9439 38.4429C25.3014 38.1489 25.7503 37.9861 26.215 37.9861H28.2548M44.1437 28.0555V36C44.1437 36.5267 43.9344 37.0319 43.5619 37.4044C43.1895 37.7768 42.6843 37.9861 42.1576 37.9861H28.2548" stroke="#F09000" stroke-width="2" stroke-linecap="round" stroke-linejoin="round"/>
</svg>
