<svg width="25" height="24" viewBox="0 0 25 24" fill="none" xmlns="http://www.w3.org/2000/svg">
<g id="Icons/Social/Twitter">
<path id="Vector" d="M23.0614 3.36952C22.1421 4.01797 21.1242 4.51394 20.047 4.83832C19.4688 4.17353 18.7004 3.70234 17.8458 3.48849C16.9911 3.27463 16.0913 3.32842 15.2682 3.64259C14.4451 3.95676 13.7383 4.51614 13.2435 5.24508C12.7486 5.97403 12.4896 6.83736 12.5014 7.71832V8.67832C10.8143 8.72206 9.14263 8.3479 7.63517 7.58914C6.12772 6.83039 4.83131 5.71061 3.86141 4.32952C3.86141 4.32952 0.0214063 12.9695 8.66141 16.8095C6.68431 18.1516 4.32908 18.8245 1.94141 18.7295C10.5814 23.5295 21.1414 18.7295 21.1414 7.68952C21.1405 7.42211 21.1148 7.15537 21.0646 6.89272C22.0444 5.92647 22.7358 4.70652 23.0614 3.36952Z" fill="#55ACEE"/>
</g>
</svg>
