<svg width="110" height="40" viewBox="0 0 110 40" fill="none" xmlns="http://www.w3.org/2000/svg">
<path d="M44.3914 22.6367C43.8983 22.6367 43.4849 22.5131 43.1514 22.2658C42.8178 22.0185 42.5858 21.5749 42.4553 20.9349L39.7578 7.364H42.8033L44.6742 18.2076H44.7177L47.8719 8.17127H48.9596C49.3222 8.17127 49.634 8.26582 49.895 8.45491C50.1706 8.644 50.3809 8.98582 50.5259 9.48036L53.1799 18.1858H53.2234L55.0942 7.364H58.1397L55.4205 20.9349C55.3045 21.5167 55.0869 21.9458 54.7679 22.2222C54.4633 22.4985 54.0428 22.6367 53.5062 22.6367H52.2444L49.0031 12.164H48.9596L45.6531 22.6367H44.3914Z" fill="#00B25A"/>
<path d="M65.0812 22.8113C63.9355 22.8113 62.9203 22.5713 62.0357 22.0913C61.1655 21.5967 60.4839 20.9131 59.9908 20.0404C59.5122 19.1531 59.2729 18.1276 59.2729 16.964V13.0367C59.2729 11.8731 59.5122 10.8549 59.9908 9.98218C60.4839 9.09491 61.1655 8.41127 62.0357 7.93127C62.9203 7.43673 63.9355 7.18945 65.0812 7.18945H67.3871C68.5328 7.18945 69.5407 7.43673 70.4108 7.93127C71.2955 8.41127 71.9771 9.09491 72.4557 9.98218C72.9488 10.8549 73.1953 11.8731 73.1953 13.0367V16.964C73.1953 18.1276 72.9488 19.1531 72.4557 20.0404C71.9771 20.9131 71.2955 21.5967 70.4108 22.0913C69.5407 22.5713 68.5328 22.8113 67.3871 22.8113H65.0812ZM67.3871 20.1495C68.2282 20.1495 68.9026 19.844 69.4102 19.2331C69.9323 18.6222 70.1933 17.8222 70.1933 16.8331V13.1676C70.1933 12.1785 69.9323 11.3785 69.4102 10.7676C68.9026 10.1567 68.2282 9.85127 67.3871 9.85127H65.0812C64.24 9.85127 63.5584 10.1567 63.0363 10.7676C62.5287 11.3785 62.275 12.1785 62.275 13.1676V16.8331C62.275 17.8222 62.5287 18.6222 63.0363 19.2331C63.5584 19.844 64.24 20.1495 65.0812 20.1495H67.3871Z" fill="#00B25A"/>
<path d="M78.9551 22.6367C78.462 22.6367 78.0487 22.5131 77.7152 22.2658C77.3816 22.0185 77.1496 21.5749 77.019 20.9349L74.3216 7.364H77.3671L79.2379 18.2076H79.2814L82.4357 8.17127H83.5234C83.886 8.17127 84.1978 8.26582 84.4588 8.45491C84.7344 8.644 84.9446 8.98582 85.0897 9.48036L87.7436 18.1858H87.7871L89.658 7.364H92.7035L89.9843 20.9349C89.8682 21.5167 89.6507 21.9458 89.3316 22.2222C89.0271 22.4985 88.6065 22.6367 88.0699 22.6367H86.8082L83.5669 12.164H83.5234L80.2168 22.6367H78.9551Z" fill="#00B25A"/>
<path d="M45.3131 25.6985H42.8984V25.0004H48.5326V25.6985H46.118V32.6367H45.3131V25.6985Z" fill="#29313D"/>
<path d="M50.7725 25.0004H51.5773V32.6367H50.7725V25.0004Z" fill="#29313D"/>
<path d="M56.6101 32.724C56.1243 32.724 55.6928 32.6076 55.3158 32.3749C54.946 32.1422 54.6559 31.8185 54.4456 31.404C54.2426 30.9822 54.1411 30.4985 54.1411 29.9531V27.684C54.1411 27.1385 54.2426 26.6549 54.4456 26.2331C54.6559 25.8113 54.9496 25.4876 55.3266 25.2622C55.711 25.0294 56.1533 24.9131 56.6536 24.9131H57.8066C58.2779 24.9131 58.6912 25.0149 59.0465 25.2185C59.4091 25.4222 59.6883 25.7094 59.8841 26.0804C60.0871 26.4513 60.1886 26.8767 60.1886 27.3567H59.4055C59.4055 26.8404 59.2568 26.4258 58.9595 26.1131C58.6695 25.7931 58.2852 25.6331 57.8066 25.6331H56.6536C56.1388 25.6331 55.7255 25.8222 55.4137 26.2004C55.1019 26.5713 54.946 27.0658 54.946 27.684V29.9531C54.946 30.5713 55.0982 31.0694 55.4028 31.4476C55.7073 31.8185 56.1098 32.004 56.6101 32.004H57.7848C58.2779 32.004 58.6731 31.8294 58.9704 31.4804C59.2749 31.1313 59.4272 30.6731 59.4272 30.1058H60.2104C60.2104 30.6222 60.1088 31.0804 59.9058 31.4804C59.7028 31.8731 59.4163 32.1785 59.0465 32.3967C58.684 32.6149 58.2634 32.724 57.7848 32.724H56.6101Z" fill="#29313D"/>
<path d="M67.1711 32.6367L64.2343 28.9822L63.2771 29.9967V32.6367H62.4723V25.0004H63.2771V28.9931L66.9753 25.0004H67.9759L64.789 28.3931L68.1717 32.6367H67.1711Z" fill="#29313D"/>
<path d="M70.8362 32.6367C70.6114 32.6367 70.4373 32.5749 70.3141 32.4513C70.1908 32.3204 70.1292 32.1422 70.1292 31.9167V25.0004H75.2413V25.6985H70.934V28.3822H74.915V29.0804H70.934V31.9385H75.2413V32.6367H70.8362Z" fill="#29313D"/>
<path d="M79.4551 25.6985H77.0404V25.0004H82.6746V25.6985H80.2599V32.6367H79.4551V25.6985Z" fill="#29313D"/>
<path d="M86.5827 32.724C86.1476 32.724 85.7633 32.6331 85.4297 32.4513C85.0962 32.2622 84.8351 32.0004 84.6466 31.6658C84.4653 31.324 84.3747 30.9313 84.3747 30.4876H85.1578C85.1578 30.9385 85.2883 31.3058 85.5494 31.5894C85.8177 31.8658 86.1693 32.004 86.6044 32.004H87.8117C88.2396 32.004 88.584 31.9094 88.845 31.7204C89.1061 31.524 89.2366 31.2694 89.2366 30.9567V30.2585C89.2366 30.0113 89.1387 29.8004 88.9429 29.6258C88.7544 29.4513 88.4934 29.3385 88.1598 29.2876L86.202 28.9604C85.6509 28.8658 85.2231 28.6694 84.9185 28.3713C84.6139 28.0731 84.4617 27.6985 84.4617 27.2476V26.6585C84.4617 26.1276 84.6575 25.7058 85.049 25.3931C85.4478 25.0731 85.9736 24.9131 86.6262 24.9131H87.8552C88.4716 24.9131 88.9683 25.1022 89.3454 25.4804C89.7224 25.8513 89.911 26.3422 89.911 26.9531H89.1278C89.1278 26.5531 89.0118 26.2331 88.7798 25.9931C88.5477 25.7531 88.2396 25.6331 87.8552 25.6331H86.6262C86.2128 25.6331 85.8829 25.7276 85.6364 25.9167C85.3898 26.0985 85.2666 26.3458 85.2666 26.6585V27.2476C85.2666 27.5022 85.3572 27.7167 85.5385 27.8913C85.727 28.0658 85.9844 28.1822 86.3107 28.2404L88.2577 28.5785C88.8233 28.6804 89.262 28.8767 89.5738 29.1676C89.8856 29.4513 90.0415 29.8149 90.0415 30.2585V30.9567C90.0415 31.4876 89.8385 31.9167 89.4324 32.244C89.0263 32.564 88.4934 32.724 87.8335 32.724H86.5827Z" fill="#29313D"/>
<ellipse cx="20.8179" cy="20.0001" rx="13.0522" ry="13.0909" fill="#00B25A"/>
<path d="M23.4007 11.2972C23.0536 10.9781 22.597 10.8056 22.1262 10.8159C21.6554 10.8261 21.2067 11.0182 20.8738 11.3522L12.2384 20.0145C12.0687 20.1846 11.9341 20.3867 11.8422 20.6091C11.7504 20.8314 11.7031 21.0698 11.7031 21.3105C11.7031 21.5511 11.7504 21.7895 11.8422 22.0119C11.9341 22.2342 12.0687 22.4363 12.2384 22.6065L13.447 23.8174C13.8999 24.2729 14.5513 24.163 14.935 23.9064C15.2111 23.7223 15.5423 23.6398 15.8722 23.6727C16.2021 23.7057 16.5105 23.8523 16.745 24.0874C16.9794 24.3226 17.1255 24.6318 17.1584 24.9628C17.1913 25.2937 17.109 25.6258 16.9255 25.9027C16.6709 26.2876 16.5613 26.9422 17.0142 27.3964L18.1954 28.5798C18.3684 28.7535 18.5743 28.8905 18.8011 28.9828C19.0279 29.0751 19.2708 29.1208 19.5155 29.1171C19.7602 29.1134 20.0016 29.0605 20.2255 28.9615C20.4494 28.8624 20.6512 28.7193 20.8189 28.5406L29.4308 19.3612C29.5966 19.1845 29.7257 18.9766 29.8108 18.7495C29.8958 18.5223 29.935 18.2805 29.9262 18.0381C29.9173 17.7956 29.8605 17.5573 29.7591 17.337C29.6577 17.1167 29.5138 16.9189 29.3355 16.7548L28.1778 15.6905C28.0506 15.5768 27.8988 15.4943 27.7343 15.4495C27.5698 15.4048 27.3973 15.399 27.2302 15.4326C26.9339 15.485 26.6533 15.6421 26.4497 15.8646C26.3222 16.0041 26.1687 16.1169 25.9977 16.1968C25.8268 16.2767 25.6418 16.3221 25.4534 16.3303C25.265 16.3385 25.0768 16.3094 24.8996 16.2447C24.7225 16.1799 24.5597 16.0808 24.4207 15.953C24.2817 15.8252 24.1691 15.6712 24.0895 15.4997C24.0098 15.3283 23.9646 15.1428 23.9564 14.9538C23.9483 14.7648 23.9773 14.5761 24.0418 14.3984C24.1063 14.2207 24.2052 14.0574 24.3326 13.918C24.5375 13.6981 24.6693 13.4035 24.6968 13.1025C24.7156 12.9326 24.6948 12.7606 24.6359 12.6002C24.577 12.4397 24.4816 12.2953 24.3574 12.1782L23.4007 11.2972Z" fill="white"/>
</svg>
