<svg width="21" height="16" viewBox="0 0 21 16" fill="none" xmlns="http://www.w3.org/2000/svg">
<g id="logos:youtube" clip-path="url(#clip0_324_697)">
<path id="Vector" d="M8.35547 10.6556L13.9773 7.79169L8.35547 4.90381V10.6556Z" fill="white"/>
<path id="Vector_2" opacity="0.12" d="M8.35547 4.90381L13.2868 8.14368L13.9773 7.79169L8.35547 4.90381Z" fill="#420000"/>
<path id="Vector_3" d="M20.6798 3.90368C20.6798 3.90368 20.4768 2.49574 19.8515 1.87176C19.0638 1.05579 18.1786 1.05579 17.7644 1.0078C14.8654 0.799805 10.5044 0.799805 10.5044 0.799805H10.4963C10.4963 0.799805 6.13536 0.799805 3.21997 1.0078C2.81393 1.05579 1.92874 1.05579 1.13291 1.87176C0.515726 2.49574 0.312706 3.90368 0.312706 3.90368C0.312706 3.90368 0.101562 5.56761 0.101562 7.22354V8.77548C0.101562 10.4314 0.312706 12.0873 0.312706 12.0873C0.312706 12.0873 0.515726 13.4953 1.14103 14.1193C1.92874 14.9352 2.96821 14.9112 3.43112 14.9912C5.09589 15.1512 10.4963 15.1992 10.4963 15.1992C10.4963 15.1992 14.8653 15.1912 17.7726 14.9832C18.1786 14.9352 19.0638 14.9352 19.8596 14.1193C20.4849 13.4953 20.6879 12.0873 20.6879 12.0873C20.6879 12.0873 20.8991 10.4314 20.8991 8.77548V7.22354C20.891 5.56761 20.6798 3.90368 20.6798 3.90368ZM8.35241 10.6554V4.90364L13.972 7.79152L8.35233 10.6554H8.35241Z" fill="url(#paint0_linear_324_697)"/>
</g>
<defs>
<linearGradient id="paint0_linear_324_697" x1="10.4962" y1="0.799805" x2="10.4962" y2="15.2035" gradientUnits="userSpaceOnUse">
<stop stop-color="#E52D27"/>
<stop offset="1" stop-color="#BF171D"/>
</linearGradient>
<clipPath id="clip0_324_697">
<rect width="20.7992" height="14.3994" fill="white" transform="translate(0.101562 0.799805)"/>
</clipPath>
</defs>
</svg>
